{
	"asset":{
		"version":"2.0",
		"generator":""
	},
	"scenes":[{
		"nodes":[0]
	}],
	"nodes":[{
		"name":"Fin.svg",
		"children":[1]
	},
	{
		"name":"Null",
		"translation":[0.0,
		0.0,
		0.0],
		"rotation":[0.0,
		0.0,
		0.0,
		-1.0],
		"scale":[5.089130878448486,
		5.089130878448486,
		5.089130878448486],
		"children":[2]
	},
	{
		"name":"Null",
		"translation":[-0.0727161392569542,
		-0.09837031364440918,
		0.0],
		"rotation":[0.0,
		0.0,
		0.0,
		-1.0],
		"scale":[1.0,
		1.0,
		1.0],
		"children":[3]
	},
	{
		"name":"Fill",
		"mesh":0
	}],
	"meshes":[{
		"name":"Fill",
		"primitives":[{
			"attributes":{
				"POSITION":1
			},
			"indices":0,
			"material":0
		}]
	}],
	"accessors":[{
		"bufferView":0,
		"type":"SCALAR",
		"componentType":5123,
		"count":5748,
		"byteOffset":0,
		"min":[0],
		"max":[959]
	},
	{
		"bufferView":1,
		"type":"VEC3",
		"componentType":5126,
		"count":960,
		"byteOffset":0,
		"min":[0.0,
		0.00024341665266547352,
		-0.008500000461935997],
		"max":[0.1454322785139084,
		0.19649721682071687,
		0.0005000000237487257]
	}],
	"bufferViews":[{
		"buffer":0,
		"byteOffset":0,
		"byteLength":11496,
		"target":34963
	},
	{
		"buffer":0,
		"byteOffset":11496,
		"byteLength":11520,
		"target":34962
	}],
	"buffers":[{
		"uri":"data:application/octet-stream;base64,",
		"byteLength":23016
	}],
	"materials":[{
		"pbrMetallicRoughness":{
			"baseColorFactor":[0.03597122302158273,
			0.03597122302158273,
			0.03597122302158273,
			1.0],
			"metallicFactor":0.0,
			"roughnessFactor":0.466
		},
		"emissiveFactor":[0.0,
		0.0,
		0.0],
		"alphaMode":"OPAQUE",
		"doubleSided":false,
		"name":"Node"
	}]
}