{
	"bufferViews":[{
		"buffer":0,
		"byteOffset":0,
		"byteLength":189312,
		"target":34963
	},
	{
		"buffer":0,
		"byteOffset":189312,
		"byteLength":189336,
		"target":34962
	}],
	"asset":{
		"version":"2.0",
		"generator":""
	},
	"scenes":[{
		"nodes":[0]
	}],
	"nodes":[{
		"name":"Subdivision Surface",
		"translation":[-0.046481892466545108,
		0.05430165305733681,
		0.010951886884868145],
		"rotation":[0.0,
		0.0,
		0.0,
		-1.0],
		"scale":[1.0,
		1.0,
		1.0],
		"children":[1]
	},
	{
		"name":"Fin.svg",
		"children":[2]
	},
	{
		"name":"Null",
		"translation":[0.0,
		0.0,
		0.0],
		"rotation":[0.0,
		0.0,
		0.0,
		-1.0],
		"scale":[5.089130878448486,
		5.089130878448486,
		5.089130878448486],
		"children":[3]
	},
	{
		"name":"Null",
		"translation":[-0.0727161392569542,
		-0.09837031364440918,
		0.0],
		"rotation":[0.0,
		0.0,
		0.0,
		-1.0],
		"scale":[1.0,
		1.0,
		1.0],
		"children":[4]
	},
	{
		"name":"Fill",
		"mesh":0
	}],
	"meshes":[{
		"name":"Fill",
		"primitives":[{
			"attributes":{
				"POSITION":1
			},
			"indices":0,
			"material":0
		}]
	}],
	"accessors":[{
		"bufferView":0,
		"type":"SCALAR",
		"componentType":5123,
		"count":94656,
		"min":[0],
		"byteOffset":0,
		"max":[15777]
	},
	{
		"bufferView":1,
		"type":"VEC3",
		"componentType":5126,
		"count":15778,
		"min":[0.0,
		0.00024341665266547352,
		-0.00820000097155571],
		"byteOffset":0,
		"max":[0.1454322785139084,
		0.19649723172187806,
		0.00020000000949949026]
	}],
	"buffers":[{
		"uri":"data:application/octet-stream;base64,",
		"byteLength":378648
	}],
	"materials":[{
		"pbrMetallicRoughness":{
			"baseColorFactor":[0.0269907839435467,
			0.0269907839435467,
			0.0269907839435467,
			1.0],
			"metallicFactor":0.0,
			"roughnessFactor":0.4
		},
		"emissiveFactor":[0.0,
		0.0,
		0.0],
		"alphaMode":"OPAQUE",
		"doubleSided":false,
		"name":"Node"
	}]
}